<svg>
	<symbol id="like" viewBox="0 0 21 19" fill="currentColor" xmlns="http://www.w3.org/2000/svg">
		<path fill-rule="evenodd" clip-rule="evenodd" d="M10.2426 1.75736C12.5858 -0.585787 16.3848 -0.585787 18.7279 1.75736C21.0711 4.10051 21.0711 7.89949 18.7279 10.2426L10.2426 18.728L1.75736 10.2427C-0.585787 7.89953 -0.585786 4.10054 1.75736 1.75739C4.1005 -0.585744 7.89947 -0.58576 10.2426 1.75736ZM17.3137 3.17158C15.7516 1.60948 13.2189 1.60947 11.6568 3.17157L10.2426 4.58579L8.82843 3.17161C7.26633 1.60951 4.73367 1.60951 3.17157 3.17161C1.60948 4.7337 1.60948 7.26636 3.17157 8.82846L10.2426 15.8995L17.3137 8.82843C18.8758 7.26633 18.8758 4.73367 17.3137 3.17158Z" fill="currentColor"/>
	</symbol>
	<symbol id="chat" viewBox="0 0 20 19" fill="currentColor" xmlns="http://www.w3.org/2000/svg">
		<path d="M15 6C15 6.55228 14.5523 7 14 7H6C5.44772 7 5 6.55228 5 6C5 5.44772 5.44772 5 6 5H14C14.5523 5 15 5.44772 15 6Z" fill="currentColor"/>
		<path d="M5 10C5 10.5523 5.44772 11 6 11H14C14.5523 11 15 10.5523 15 10C15 9.44772 14.5523 9 14 9H6C5.44772 9 5 9.44772 5 10Z" fill="currentColor"/>
		<path fill-rule="evenodd" clip-rule="evenodd" d="M4 0C1.79086 0 0 1.79086 0 4V16C0 17.8811 1.93624 19.1395 3.65525 18.3754L8.2243 16.3448C8.73574 16.1174 9.28918 16 9.84886 16H16C18.2091 16 20 14.2091 20 12V4C20 1.79086 18.2091 0 16 0H4ZM16 2H4C2.89543 2 2 2.89543 2 4V16C2 16.4338 2.44653 16.724 2.84297 16.5478L7.41203 14.5171C8.17918 14.1762 9.00935 14 9.84886 14H16C17.1046 14 18 13.1046 18 12V4C18 2.89543 17.1046 2 16 2Z" fill="currentColor"/>
	</symbol>
	<symbol id="cart" viewBox="0 0 20 19" fill="currentColor" xmlns="http://www.w3.org/2000/svg">
		<path fill-rule="evenodd" clip-rule="evenodd" d="M2.79797 2H0V0H4.44013L5.07398 3.19462C5.16705 3.6625 5.57777 4 6.05486 4H16.114C18.2086 4 19.6585 6.09212 18.923 8.05337L17.423 12.0534C16.9839 13.2243 15.8645 14 14.614 14H9.28432C6.89805 14 4.84434 12.3137 4.37993 9.97309L2.79797 2ZM5.62449 5.96918L6.34169 9.58386C6.62034 10.9882 7.85256 12 9.28432 12H14.614C15.0308 12 15.404 11.7414 15.5503 11.3511L17.0503 7.35112C17.2955 6.69737 16.8122 6 16.114 6H6.05486C5.90907 6 5.76535 5.98951 5.62449 5.96918Z" fill="currentColor"/>
		<path d="M8 17.5C8 18.3284 7.32843 19 6.5 19C5.67157 19 5 18.3284 5 17.5C5 16.6716 5.67157 16 6.5 16C7.32843 16 8 16.6716 8 17.5Z" fill="currentColor"/>
		<path d="M15.5 19C16.3284 19 17 18.3284 17 17.5C17 16.6716 16.3284 16 15.5 16C14.6716 16 14 16.6716 14 17.5C14 18.3284 14.6716 19 15.5 19Z" fill="currentColor"/>
	</symbol>
	<symbol id="fav" viewBox="0 0 20 17" fill="currentColor" xmlns="http://www.w3.org/2000/svg">
		<path fill-rule="evenodd" clip-rule="evenodd" d="M9.53735 3.19604L9.46969 3.26371C7.70072 1.49473 4.83264 1.49473 3.06367 3.2637C1.2947 5.03268 1.29469 7.90075 3.06367 9.66973L6.79699 13.403C8.56597 15.172 11.434 15.172 13.203 13.403L16.9364 9.6697C18.7053 7.90073 18.7053 5.03266 16.9364 3.26368C15.1674 1.49471 12.2993 1.49471 10.5303 3.26368L10.0677 3.72635L9.53735 3.19604ZM14.2637 14.4637L17.997 10.7304C20.3518 8.3756 20.3518 4.55778 17.997 2.20302C15.8118 0.0178142 12.3667 -0.139532 10 1.73099C7.63335 -0.139506 4.18821 0.0178459 2.00301 2.20304C-0.35175 4.5578 -0.351753 8.37563 2.00301 10.7304L5.73633 14.4637L5.73635 14.4637C8.09111 16.8185 11.9089 16.8185 14.2637 14.4637L14.2637 14.4637Z" fill="currentColor"/>
	</symbol>
</svg>
